<svg id="Layer_1" data-name="Layer 1" xmlns="http://www.w3.org/2000/svg" viewBox="0 0 331.24 134.77"><defs><style>.cls-1,.cls-2,.cls-6{fill:#b3b3b3;stroke-width:2px;}.cls-1{stroke:#2e3192;}.cls-2{stroke:#c1272d;}.cls-3{fill:#e6e6e6;stroke:#4d4d4d;}.cls-4{fill:#fff;}.cls-4,.cls-5{stroke:#999;stroke-width:0.5px;}.cls-5{fill:none;}.cls-6{stroke:#006837;}</style></defs><title>app_logo_big</title><path id="path" class="cls-1" d="M32.87,166.63l129.2-.1c12.1,0,12.1-39.4,0-39.4l-129.2.1" transform="translate(-32.74 -32.87)"/><path id="path_1" data-name="path 1" class="cls-2" d="M44.27,124.43h107.6c10.1,0,10.1-32.9,0-32.9H44.27" transform="translate(-32.74 -32.87)"/><path id="path_2" data-name="path 2" class="cls-3" d="M209.13,35c-5.92,3.43-9.24,8.18-10.14,14.39l-.34,2.4-.34-2.38c-.18-1.31-.3-2.72-.3-3.11l0-.72-1.31,1.34a42.53,42.53,0,0,0-6.4,9.66,28.49,28.49,0,0,0-1.8,12.11,4.88,4.88,0,0,1,0,1.77c-.23.24-1.32-2.86-1.81-5.2-.23-1.16-.46-2.1-.48-2.09s-.56,1-1.19,2.24a50.3,50.3,0,0,0-3.87,10.08A38.54,38.54,0,0,0,180,90.84l.32,2.54-.72-1.33a14,14,0,0,1-1.36-4.45c-.69-3.6-.66-3.61-1.87,0a37.12,37.12,0,0,0-1.75,13.74,53.6,53.6,0,0,0,1.11,6.61c.52,2.43.93,4.44.88,4.45a19.26,19.26,0,0,1-2.06-2.79,15.19,15.19,0,0,1-.88-2.16l-.47-1.39-.39,1.92a19.55,19.55,0,0,0,.34,9.36A27.39,27.39,0,0,0,175,122.9a16.63,16.63,0,0,1,1,2.34c-.13.2-2.09-1.93-2.83-3.06l-.77-1.2v1c0,1.42,1.32,5.15,3.17,9,2,4.25,2.24,4.82,2.09,5.71-.79,4.89-2.15,14.73-2.47,17.91-.85,8.24-.83,11.92,0,12,.41.07.69-1,1.12-4.22,1.64-12.64,4.81-30.76,7.63-44a502.63,502.63,0,0,1,17-59.4c1.34-3.87,3.67-9.42,4-9.49.05,0-.81,2.66-1.84,5.93-6.81,21.09-13.32,44.37-16.32,58.36-2,9.33-4.36,21.84-4.13,22s4.07-2.31,6.84-4.37a13.68,13.68,0,0,0,4.3-4.27,10.78,10.78,0,0,0,1.31-2.22,6.07,6.07,0,0,0-1.59.55,32,32,0,0,1-3.19,1.13l-1.75.47.75-.56,3.13-2.3a26.17,26.17,0,0,0,9.83-14.23l.3-1.09-1,.93a13.43,13.43,0,0,1-5.11,2.88l-1.51.44,1.42-1.16a25.46,25.46,0,0,0,5.21-6,42.7,42.7,0,0,0,5.58-12.64c.55-2.07,1.63-6.88,1.59-7.15a9.88,9.88,0,0,0-1.49.93,14.3,14.3,0,0,1-5,2.14c-.32,0-.1-.28.73-.93,5.35-4.21,8.61-11.17,10.24-21.89.1-.71.23-1.49.29-1.75.08-.48.06-.47-.64.15a17,17,0,0,1-5,2.76l-.9.17,1.34-1.2c2.66-2.34,5.19-7.31,6.07-11.88a24.14,24.14,0,0,0,.45-6.54l-.15-.81-.76.91a10.46,10.46,0,0,1-3.3,2.36c-.14,0,.31-.92,1-2.08a25.39,25.39,0,0,0,3.54-12c.2-3,.13-3.36-.51-3a18.5,18.5,0,0,0-4.34,3.93c-.8.94-1.5,1.74-1.55,1.75a29.52,29.52,0,0,1,1.55-3.93,2,2,0,0,0,.32-1A5.69,5.69,0,0,0,209.13,35Z" transform="translate(-32.74 -32.87)"/><path id="path_15" data-name="path 15" class="cls-4" d="M44.07,92s4.6.5,4.6,15.7-4.6,15.7-4.6,15.7" transform="translate(-32.74 -32.87)"/><path id="path_16" data-name="path 16" class="cls-4" d="M32.77,128.13s4.6.6,4.6,19-4.6,19-4.6,19" transform="translate(-32.74 -32.87)"/><path id="path_17" data-name="path 17" class="cls-5" d="M47.07,95.43h107.4" transform="translate(-32.74 -32.87)"/><path id="path_18" data-name="path 18" class="cls-5" d="M47.07,96.33h108.3" transform="translate(-32.74 -32.87)"/><path id="path_19" data-name="path 19" class="cls-5" d="M48.07,99.23h108.3" transform="translate(-32.74 -32.87)"/><path id="path_20" data-name="path 20" class="cls-5" d="M48.07,100.13h108.3" transform="translate(-32.74 -32.87)"/><path id="path_21" data-name="path 21" class="cls-5" d="M49,101.13h108.3" transform="translate(-32.74 -32.87)"/><path id="path_22" data-name="path 22" class="cls-5" d="M49,106.83h109.3" transform="translate(-32.74 -32.87)"/><path id="path_23" data-name="path 23" class="cls-5" d="M49,108.73h109.3" transform="translate(-32.74 -32.87)"/><path id="path_24" data-name="path 24" class="cls-5" d="M49,113.43h108.3" transform="translate(-32.74 -32.87)"/><path id="path_25" data-name="path 25" class="cls-5" d="M48.07,117.23h108.3" transform="translate(-32.74 -32.87)"/><path id="path_26" data-name="path 26" class="cls-5" d="M47.07,120h109.3" transform="translate(-32.74 -32.87)"/><path id="path_27" data-name="path 27" class="cls-5" d="M35.07,130.43h130.1" transform="translate(-32.74 -32.87)"/><path id="path_28" data-name="path 28" class="cls-5" d="M36,132.33h130.2" transform="translate(-32.74 -32.87)"/><path id="path_29" data-name="path 29" class="cls-5" d="M37,135.23h130.1" transform="translate(-32.74 -32.87)"/><path id="path_30" data-name="path 30" class="cls-5" d="M37.87,139.93h130.2" transform="translate(-32.74 -32.87)"/><path id="path_31" data-name="path 31" class="cls-5" d="M37.87,145.63H170" transform="translate(-32.74 -32.87)"/><path id="path_32" data-name="path 32" class="cls-5" d="M37.87,142.83H170" transform="translate(-32.74 -32.87)"/><path id="path_33" data-name="path 33" class="cls-5" d="M37.87,144.73H170" transform="translate(-32.74 -32.87)"/><path id="path_34" data-name="path 34" class="cls-5" d="M37,159.93h130.1" transform="translate(-32.74 -32.87)"/><path id="path_35" data-name="path 35" class="cls-5" d="M36,162.73h130.2" transform="translate(-32.74 -32.87)"/><path id="path_36" data-name="path 36" class="cls-5" d="M37.87,153.23h130.2" transform="translate(-32.74 -32.87)"/><path id="path_37" data-name="path 37" class="cls-5" d="M37.87,149.43h130.2" transform="translate(-32.74 -32.87)"/><path d="M229.29,98.88H221.8v3h-2v-5h22.57v5h-1.95v-3H233v22.34h2.61V123h-8.9v-1.73h2.6Z" transform="translate(-32.74 -32.87)"/><path d="M261.46,123v-3.59a9.26,9.26,0,0,1-3,3,7.37,7.37,0,0,1-3.84,1,4.83,4.83,0,0,1-3.85-1.61,6.63,6.63,0,0,1-1.4-4.47V105.6h-2.6v-1.74h6.08v12.9a5.41,5.41,0,0,0,.67,3.14,2.7,2.7,0,0,0,2.31.88,5.9,5.9,0,0,0,2.83-.76,11.37,11.37,0,0,0,2.84-2.28V105.6h-2.6v-1.74h6.08v17.35h2.6V123Z" transform="translate(-32.74 -32.87)"/><path d="M279.25,103.86v17.35h2.6V123h-8.69v-1.74h2.61V105.6h-2.61v-1.74Zm-3.48-3.47V96.93h3.48v3.46Z" transform="translate(-32.74 -32.87)"/><path d="M298.63,122.84a6.68,6.68,0,0,1-2.62.54,5.56,5.56,0,0,1-4.34-1.54,7.15,7.15,0,0,1-1.39-4.85V105.81h-2.6v-2h2.6v-3.47l3.48-.86v4.33h4.87v2h-4.87v11.63a5.19,5.19,0,0,0,.71,3,2.38,2.38,0,0,0,2.09,1,5.05,5.05,0,0,0,2.07-.54Z" transform="translate(-32.74 -32.87)"/><path d="M310.23,103.86v17.35h2.6V123h-8.68v-1.74h2.6V105.6h-2.6v-1.74Zm-3.48-3.47V96.93h3.48v3.46Z" transform="translate(-32.74 -32.87)"/><path d="M328,123.38a8.58,8.58,0,0,1-6.66-2.67,10.43,10.43,0,0,1-2.44-7.32,10.41,10.41,0,0,1,2.44-7.3,9.65,9.65,0,0,1,13.33,0,10.41,10.41,0,0,1,2.44,7.3,10.43,10.43,0,0,1-2.44,7.31A8.53,8.53,0,0,1,328,123.38Zm0-1.72a4.54,4.54,0,0,0,3.89-2.33,12.19,12.19,0,0,0,0-11.86,4.4,4.4,0,0,0-7.76,0,12.26,12.26,0,0,0,0,11.86A4.51,4.51,0,0,0,328,121.66Z" transform="translate(-32.74 -32.87)"/><path d="M349.25,107.44a9.3,9.3,0,0,1,3-3,7.46,7.46,0,0,1,3.84-1A4.83,4.83,0,0,1,360,105a6.57,6.57,0,0,1,1.4,4.46v11.72H364V123H355.3v-1.74h2.6V110a5.43,5.43,0,0,0-.66-3.12,2.69,2.69,0,0,0-2.32-.89,5.94,5.94,0,0,0-2.85.76,10.55,10.55,0,0,0-2.82,2.28v12.15h2.6V123h-8.68v-1.74h2.6V105.6h-2.6v-1.74h6.08Z" transform="translate(-32.74 -32.87)"/><path d="M226.59,140.43a9.24,9.24,0,0,1,3-3,7.49,7.49,0,0,1,3.85-1,4.85,4.85,0,0,1,3.85,1.61,6.62,6.62,0,0,1,1.39,4.46v11.72h2.61V156h-8.69v-1.74h2.6V143a5.44,5.44,0,0,0-.65-3.12,2.67,2.67,0,0,0-2.3-.89,5.77,5.77,0,0,0-2.67.75,14.85,14.85,0,0,0-3,2.28v12.16h2.6V156H220.5v-1.74h2.61V129.93H220.5v-1.74h6.09Z" transform="translate(-32.74 -32.87)"/><path d="M262.2,155.08a16.69,16.69,0,0,1-6.07,1.3,8.8,8.8,0,0,1-6.8-2.84,11.65,11.65,0,0,1-.26-14.39,7.61,7.61,0,0,1,6-2.73,6.3,6.3,0,0,1,5.25,2.3,10.36,10.36,0,0,1,1.84,6.59V146H250.38a9.43,9.43,0,0,0,1.66,5.9,5.48,5.48,0,0,0,4.59,2.13,11.36,11.36,0,0,0,5.57-1.51Zm-11.59-10.86h7.91v-.44q0-5.64-3.6-5.64a3.51,3.51,0,0,0-3,1.52A8.88,8.88,0,0,0,250.61,144.22Z" transform="translate(-32.74 -32.87)"/><path d="M274.8,128.19v26h2.6V156h-8.68v-1.74h2.6V129.93h-2.6v-1.74Z" transform="translate(-32.74 -32.87)"/><path d="M289.11,156v5.2h2.6v1.74H283v-1.74h2.61V138.6H283v-1.74h6.09v3.56a9.25,9.25,0,0,1,3-3,7.12,7.12,0,0,1,3.73-1A6.12,6.12,0,0,1,301,139a11.23,11.23,0,0,1,1.91,6.88,12.26,12.26,0,0,1-2.2,7.65,7,7,0,0,1-5.82,2.88,7.42,7.42,0,0,1-3.12-.65,8.32,8.32,0,0,1-2.68-1.95Zm0-4.12a9.93,9.93,0,0,0,2.59,1.62,7.23,7.23,0,0,0,2.74.54,3.9,3.9,0,0,0,3.48-2,10.15,10.15,0,0,0,1.26-5.48,11.19,11.19,0,0,0-1.13-5.64,3.67,3.67,0,0,0-3.38-1.87,5.87,5.87,0,0,0-2.93.78,9,9,0,0,0-2.63,2.37Z" transform="translate(-32.74 -32.87)"/><path d="M325.05,155.08a16.6,16.6,0,0,1-6.06,1.3,8.82,8.82,0,0,1-6.81-2.84,11.65,11.65,0,0,1-.26-14.39,7.62,7.62,0,0,1,6.05-2.73,6.29,6.29,0,0,1,5.24,2.3q1.85,2.29,1.84,6.59V146H313.24a9.43,9.43,0,0,0,1.65,5.9,5.51,5.51,0,0,0,4.6,2.13,11.32,11.32,0,0,0,5.56-1.51Zm-11.58-10.86h7.91v-.44c0-3.76-1.21-5.64-3.61-5.64a3.52,3.52,0,0,0-3,1.52A8.89,8.89,0,0,0,313.47,144.22Z" transform="translate(-32.74 -32.87)"/><path d="M337.42,142.06v12.15H340V156h-8.68v-1.74h2.6V138.6h-2.6v-1.74h6.08v3.58q2.34-4,6.23-4a3.08,3.08,0,0,1,1.14.22v4.77h-2.16v-1.95h-.57C340.58,139.46,339,140.32,337.42,142.06Z" transform="translate(-32.74 -32.87)"/><path id="path_1-2" data-name="path 1" class="cls-6" d="M156.29,63H73.11c-7.81,0-7.81,25.43,0,25.43h83.18" transform="translate(-32.74 -32.87)"/><path id="path_15-2" data-name="path 15" class="cls-4" d="M156.44,88.05s-3.55-.39-3.55-12.14,3.55-12.14,3.55-12.14" transform="translate(-32.74 -32.87)"/><path id="path_17-2" data-name="path 17" class="cls-5" d="M154.12,85.42h-83" transform="translate(-32.74 -32.87)"/><path id="path_18-2" data-name="path 18" class="cls-5" d="M154.12,84.72H70.4" transform="translate(-32.74 -32.87)"/><path id="path_19-2" data-name="path 19" class="cls-5" d="M153.35,82.48H69.63" transform="translate(-32.74 -32.87)"/><path id="path_20-2" data-name="path 20" class="cls-5" d="M153.35,81.79H69.63" transform="translate(-32.74 -32.87)"/><path id="path_21-2" data-name="path 21" class="cls-5" d="M152.66,81H68.93" transform="translate(-32.74 -32.87)"/><path id="path_22-2" data-name="path 22" class="cls-5" d="M152.66,76.61H68.16" transform="translate(-32.74 -32.87)"/><path id="path_23-2" data-name="path 23" class="cls-5" d="M152.66,75.14H68.16" transform="translate(-32.74 -32.87)"/><path id="path_24-2" data-name="path 24" class="cls-5" d="M152.66,71.5H68.93" transform="translate(-32.74 -32.87)"/><path id="path_25-2" data-name="path 25" class="cls-5" d="M153.35,68.57H69.63" transform="translate(-32.74 -32.87)"/><path id="path_26-2" data-name="path 26" class="cls-5" d="M154.12,66.4H69.63" transform="translate(-32.74 -32.87)"/></svg>