<?xml version="1.0" encoding="utf-8"?>
<!-- Generator: Adobe Illustrator 22.1.0, SVG Export Plug-In . SVG Version: 6.00 Build 0)  -->
<svg version="1.1" id="Слой_1" xmlns="http://www.w3.org/2000/svg" xmlns:xlink="http://www.w3.org/1999/xlink" x="0px" y="0px"
	 viewBox="0 0 200 200" style="enable-background:new 0 0 200 200;" xml:space="preserve">
<style type="text/css">
	.st0{fill:#B3B3B3;stroke:#2E3192;stroke-width:2;stroke-miterlimit:10;}
	.st1{fill:#B3B3B3;stroke:#C1272D;stroke-width:2;stroke-miterlimit:10;}
	.st2{fill:#E6E6E6;stroke:#4D4D4D;stroke-miterlimit:10;}
	.st3{enable-background:new    ;}
	.st4{fill:#FFFFFF;stroke:#999999;stroke-width:0.5;stroke-miterlimit:10;}
	.st5{fill:none;stroke:#999999;stroke-width:0.5;stroke-miterlimit:10;}
</style>
<path class="st0" d="M29,188.3l129.2-0.1c12.1,0,12.1-39.4,0-39.4L29,148.9"/>
<path class="st1" d="M46.4,145.1H154c10.1,0,10.1-32.9,0-32.9H46.4"/>
<g>
	<g transform="translate(0.000000,512.000000) scale(0.100000,-0.100000)">
		<path class="st2" d="M584.5,4973.6c-59.2-34.3-92.4-81.8-101.4-143.9l-3.4-24l-3.4,23.8c-1.8,13.1-3,27.2-3,31.1l0.3,7.2
			l-13.1-13.4c-19.5-19.9-54.2-72.2-64-96.6c-14.2-35.1-21.5-84.4-18-121.1c0.9-8.9,1-17,0-17.7c-2.3-2.4-13.2,28.6-18.1,52
			c-2.3,11.6-4.6,21-4.8,20.9c-0.2,0-5.6-10.2-11.9-22.4c-17.2-34-29.3-65.5-38.7-100.8c-14.6-55.1-18.2-102.2-11.7-153.8l3.2-25.4
			l-7.2,13.3c-5.7,10.4-8.8,20.1-13.6,44.5c-6.9,36-6.6,36.1-18.7,0.1c-14-40.7-20.3-91.1-17.5-137.4c0.8-12.8,5.3-40,11.1-66.1
			c5.2-24.3,9.3-44.4,8.8-44.5c-1.1-0.2-16.1,20.1-20.6,27.9c-2.4,4.5-6.5,14.2-8.8,21.6l-4.7,13.9l-3.9-19.2
			c-6.5-31-5.5-55.1,3.4-93.6c5.7-24.4,10.5-38.9,18.1-55.7c5.8-12.3,10.4-22.8,10-23.4c-1.3-2-20.9,19.3-28.3,30.6l-7.7,12
			l-0.1-9.6c0.1-14.2,13.2-51.5,31.7-90.3c20.2-42.5,22.4-48.2,20.9-57.1c-7.9-48.9-21.5-147.3-24.7-179.1
			c-8.5-82.4-8.3-119.2,0.5-120.1c4.1-0.7,6.9,10,11.2,42.2c16.4,126.4,48.1,307.6,76.3,440.5c38.1,179.2,95.3,378.1,170.2,594
			c13.4,38.7,36.7,94.2,39.8,94.9c0.5,0.1-8.1-26.6-18.4-59.3c-68.1-210.9-133.2-443.7-163.2-583.6
			c-19.9-93.3-43.6-218.4-41.3-219.9s40.7,23.1,68.4,43.7c25.5,18.9,30.2,23.8,43,42.7c7.8,11.6,13.8,21.6,13.1,22.2
			c-0.8,0.4-8-2-15.9-5.5c-7.9-3.5-22.4-8.5-31.9-11.3l-17.5-4.7l7.5,5.6c4.1,3,18.2,13.4,31.3,23c48.3,35.6,81.9,83.9,98.3,142.3
			l3,10.9l-10.3-9.3c-13.8-12.7-33-23.6-51.1-28.8l-15.1-4.4l14.2,11.6c18.4,14.9,34.1,32.9,52.1,59.9c24.8,37.7,41,74.3,55.8,126.4
			c5.5,20.7,16.3,68.8,15.9,71.5c-0.1,0.5-6.8-3.8-14.9-9.3c-15-10.1-41.5-21.6-49.6-21.4c-3.2,0.1-1,2.8,7.3,9.3
			c53.5,42.1,86.1,111.7,102.4,218.9c1,7.1,2.3,14.9,2.9,17.5c0.8,4.8,0.6,4.7-6.4-1.5c-10.3-9.3-39.5-25.5-50.1-27.6l-9-1.7
			l13.4,12c26.6,23.4,51.9,73.1,60.7,118.8c4.6,23.5,6.6,54.3,4.5,65.4l-1.5,8.1l-7.6-9.1c-7-8.3-26.9-22.4-33-23.6
			c-1.4-0.3,3.1,9.2,10,20.8c22.1,37.9,32.6,73.8,35.4,119.8c2,30.3,1.3,33.6-5.1,30.4c-10.9-5.8-29.7-22.7-43.4-39.3
			c-8-9.4-15-17.4-15.5-17.5c-1.1-0.2,9.9,27.7,15.5,39.3c2.5,4.9,3.8,9.3,3.2,9.7C599.4,4981.5,592.5,4978.2,584.5,4973.6z"/>
	</g>
</g>
<g class="st3">
	<path d="M70.4,39.1h18.1l0.4,6.6h-1.1c-0.1-1.1-0.3-2.1-0.6-2.8c-0.2-0.7-0.5-1.3-1-1.6c-0.4-0.4-1-0.6-1.6-0.8
		c-0.7-0.1-1.5-0.2-2.5-0.2h-1.2v19.9h3.4v1.2h-9.8v-1.2h3.4V40.3h-1.2c-0.7,0-1.3,0-1.8,0.1c-0.5,0.1-1,0.1-1.3,0.3
		c-0.4,0.1-0.7,0.3-1,0.6s-0.5,0.6-0.7,1c-0.2,0.4-0.4,0.9-0.5,1.4s-0.3,1.2-0.4,2H70L70.4,39.1z"/>
	<path d="M99.6,49.6h-2.2v-1.2h5v11.9h2.3v1.2h-5.1v-2h-0.1c-0.5,0.8-1,1.4-1.7,1.8c-0.7,0.4-1.5,0.6-2.6,0.6
		c-1.5,0-2.6-0.4-3.3-1.1c-0.7-0.7-1.1-1.8-1.1-3.1v-8.1h-2.2v-1.2h5v9.8c0,0.8,0.2,1.4,0.6,1.8c0.4,0.4,0.9,0.5,1.7,0.5
		c0.5,0,1-0.1,1.4-0.3c0.4-0.2,0.8-0.5,1.2-0.9c0.3-0.4,0.6-1,0.8-1.7c0.2-0.7,0.3-1.6,0.3-2.6V49.6z"/>
	<path d="M111.4,60.2h2.3v1.2h-7.4v-1.2h2.3V49.6h-2.3v-1.2h5.1V60.2z M110,44c-0.3,0-0.5,0-0.7-0.1c-0.2-0.1-0.4-0.2-0.6-0.4
		c-0.2-0.2-0.3-0.4-0.4-0.6c-0.1-0.2-0.1-0.5-0.1-0.7c0-0.3,0-0.5,0.1-0.7s0.2-0.4,0.4-0.6c0.2-0.2,0.4-0.3,0.6-0.4
		c0.2-0.1,0.5-0.1,0.7-0.1c0.3,0,0.5,0,0.7,0.1c0.2,0.1,0.4,0.2,0.6,0.4c0.2,0.2,0.3,0.4,0.4,0.6c0.1,0.2,0.1,0.5,0.1,0.7
		s0,0.5-0.1,0.8s-0.2,0.4-0.4,0.6c-0.2,0.2-0.4,0.3-0.6,0.4C110.5,43.9,110.2,44,110,44z"/>
	<path d="M125.1,58.4c-0.3,1.2-0.7,2.1-1.4,2.7c-0.6,0.6-1.5,0.9-2.6,0.9c-0.6,0-1.1-0.1-1.6-0.2c-0.5-0.1-0.9-0.4-1.2-0.7
		c-0.3-0.3-0.6-0.7-0.8-1.2c-0.2-0.5-0.3-1.1-0.3-1.8v-8.4H115v-1.2h2.3v-3l2.8-0.5v3.5h4v1.2h-4v8.8c0,0.4,0,0.8,0.1,1
		s0.2,0.5,0.3,0.6c0.1,0.2,0.3,0.3,0.5,0.3c0.2,0.1,0.4,0.1,0.7,0.1c0.3,0,0.6,0,0.8-0.1s0.4-0.2,0.6-0.4s0.3-0.4,0.5-0.7
		c0.1-0.3,0.2-0.6,0.4-1c0.2,0,0.4,0.1,0.6,0.1C124.7,58.2,124.9,58.3,125.1,58.4z"/>
	<path d="M126.8,55c0-1,0.2-1.9,0.5-2.7c0.3-0.9,0.7-1.6,1.3-2.3c0.6-0.6,1.3-1.2,2.1-1.5c0.8-0.4,1.8-0.6,2.9-0.6
		c1.1,0,2,0.2,2.8,0.5c0.8,0.4,1.5,0.9,2.1,1.5c0.6,0.6,1,1.4,1.3,2.2c0.3,0.8,0.4,1.7,0.4,2.6c0,1-0.2,1.9-0.5,2.7
		c-0.3,0.9-0.7,1.6-1.3,2.3c-0.6,0.6-1.3,1.2-2.1,1.5c-0.8,0.4-1.8,0.6-2.9,0.6c-1.1,0-2-0.2-2.8-0.5c-0.8-0.4-1.5-0.9-2.1-1.5
		s-1-1.4-1.3-2.2C126.9,56.8,126.8,55.9,126.8,55z M129.8,54.9c0,1.1,0.1,2,0.2,2.8c0.2,0.7,0.4,1.3,0.7,1.8s0.7,0.8,1.1,0.9
		c0.5,0.2,1,0.3,1.6,0.3c0.6,0,1.1-0.1,1.6-0.3c0.5-0.2,0.8-0.5,1.2-0.9c0.3-0.4,0.5-1,0.7-1.8s0.2-1.7,0.2-2.8c0-1.1-0.1-2-0.2-2.8
		c-0.2-0.7-0.4-1.3-0.7-1.8c-0.3-0.4-0.7-0.8-1.1-0.9s-1-0.3-1.6-0.3c-0.6,0-1.1,0.1-1.6,0.3c-0.5,0.2-0.8,0.5-1.1,0.9
		c-0.3,0.4-0.5,1-0.7,1.8S129.8,53.8,129.8,54.9z"/>
	<path d="M149.9,61.5h-7.5v-1.2h2.3V49.6h-2.3v-1.2h5.1v2.4h0.1c0.2-0.4,0.4-0.8,0.7-1.1c0.3-0.3,0.6-0.6,0.9-0.9
		c0.3-0.2,0.7-0.4,1-0.6c0.4-0.1,0.7-0.2,1.1-0.2c0.6,0,1.1,0.2,1.5,0.5c0.4,0.4,0.6,0.9,0.6,1.5c0,0.6-0.2,1-0.5,1.3
		c-0.3,0.3-0.7,0.5-1.2,0.5c-0.5,0-0.9-0.1-1.2-0.4c-0.3-0.3-0.4-0.7-0.4-1.1c0-0.2,0-0.5,0.1-0.8c-0.4,0.1-0.8,0.4-1.1,0.7
		s-0.6,0.7-0.9,1.2c-0.3,0.5-0.5,1-0.6,1.6c-0.1,0.6-0.2,1.3-0.2,2.1v5.2h2.5V61.5z"/>
</g>
<g class="st3">
	<path d="M74.7,98.1h2.1v1.2h-7.2v-1.2H72V78.2h-2.3V77h5.1v11.3h0.1c0.4-0.8,1-1.4,1.7-1.8s1.6-0.6,2.7-0.6c1.4,0,2.5,0.4,3.2,1.1
		s1,1.8,1,3.1v8.1h2.2v1.2h-7.1v-1.2h2.1v-8.5c0-0.9-0.2-1.5-0.6-1.9c-0.4-0.4-0.9-0.6-1.6-0.6c-0.5,0-1,0.1-1.4,0.3
		c-0.4,0.2-0.8,0.5-1.2,1c-0.3,0.4-0.6,1-0.8,1.7c-0.2,0.7-0.3,1.5-0.3,2.4V98.1z"/>
	<path d="M99.8,95.2c-0.3,1.5-1,2.6-1.9,3.4c-0.9,0.8-2.2,1.2-3.7,1.2c-1,0-2-0.2-2.8-0.5c-0.8-0.4-1.5-0.9-2.1-1.5
		c-0.6-0.6-1-1.4-1.3-2.2c-0.3-0.8-0.4-1.7-0.4-2.7c0-1,0.2-1.9,0.5-2.7c0.3-0.9,0.7-1.6,1.3-2.2c0.6-0.6,1.3-1.1,2-1.5
		c0.8-0.4,1.7-0.6,2.7-0.6c0.9,0,1.7,0.2,2.4,0.5c0.7,0.3,1.3,0.8,1.8,1.3c0.5,0.6,0.9,1.3,1.2,2c0.3,0.8,0.4,1.7,0.4,2.6h-9.3
		c0,0.2,0,0.3,0,0.3c0,0.1,0,0.1,0,0.1c0,1.2,0.1,2.2,0.3,3c0.2,0.8,0.4,1.4,0.8,1.8c0.3,0.4,0.7,0.7,1.2,0.9
		c0.4,0.2,0.9,0.2,1.5,0.2c0.5,0,1-0.1,1.4-0.2c0.4-0.1,0.8-0.3,1.2-0.6c0.4-0.3,0.7-0.7,0.9-1.1c0.3-0.5,0.5-1,0.7-1.7
		c0.2,0,0.4,0.1,0.6,0.1C99.4,95,99.6,95.1,99.8,95.2z M96.9,91.1c0-0.9-0.1-1.5-0.3-2.1S96.3,88,96,87.7c-0.2-0.3-0.5-0.5-0.9-0.6
		C94.8,87,94.5,87,94.1,87c-0.4,0-0.8,0.1-1.2,0.2c-0.4,0.1-0.7,0.3-1,0.6s-0.5,0.7-0.7,1.2c-0.2,0.5-0.3,1.2-0.4,2H96.9z"/>
	<path d="M107.3,98.1h2.3v1.2h-7.4v-1.2h2.3V78.2h-2.3V77h5.1V98.1z"/>
	<path d="M116.2,88.2L116.2,88.2c0.5-0.8,1.1-1.4,1.8-1.8c0.7-0.4,1.5-0.6,2.4-0.6c0.9,0,1.7,0.2,2.4,0.5c0.7,0.3,1.4,0.8,1.9,1.4
		c0.5,0.6,1,1.3,1.3,2.2c0.3,0.9,0.5,1.8,0.5,2.8c0,1.1-0.2,2.1-0.5,3s-0.8,1.6-1.3,2.2c-0.6,0.6-1.2,1.1-2,1.4
		c-0.8,0.3-1.5,0.5-2.4,0.5c-0.8,0-1.6-0.2-2.3-0.5c-0.7-0.4-1.3-0.9-1.7-1.7h-0.1v9.1h2.5v1.2h-7.5v-1.2h2.3V87.5h-2.3v-1.2h5.1
		V88.2z M123.5,92.8c0-1.2-0.1-2.1-0.2-2.9s-0.4-1.3-0.7-1.8c-0.3-0.4-0.7-0.7-1.1-0.9c-0.4-0.2-0.9-0.2-1.4-0.2
		c-0.7,0-1.3,0.1-1.8,0.4s-0.9,0.7-1.2,1.2c-0.3,0.5-0.5,1.1-0.7,1.8s-0.2,1.5-0.2,2.3c0,0.9,0.1,1.6,0.2,2.2
		c0.1,0.6,0.3,1.1,0.5,1.6s0.5,0.8,0.7,1s0.6,0.5,0.8,0.6c0.3,0.1,0.6,0.2,0.8,0.3c0.3,0,0.5,0.1,0.8,0.1c0.5,0,0.9-0.1,1.3-0.2
		c0.4-0.2,0.8-0.4,1.1-0.9c0.3-0.4,0.5-1,0.7-1.8C123.4,94.9,123.5,94,123.5,92.8z"/>
	<path d="M141.3,95.2c-0.3,1.5-1,2.6-1.9,3.4c-0.9,0.8-2.2,1.2-3.7,1.2c-1,0-2-0.2-2.8-0.5c-0.8-0.4-1.5-0.9-2.1-1.5
		c-0.6-0.6-1-1.4-1.3-2.2c-0.3-0.8-0.4-1.7-0.4-2.7c0-1,0.2-1.9,0.5-2.7c0.3-0.9,0.7-1.6,1.3-2.2s1.3-1.1,2-1.5
		c0.8-0.4,1.7-0.6,2.7-0.6c0.9,0,1.7,0.2,2.4,0.5s1.3,0.8,1.8,1.3c0.5,0.6,0.9,1.3,1.2,2c0.3,0.8,0.4,1.7,0.4,2.6h-9.3
		c0,0.2,0,0.3,0,0.3c0,0.1,0,0.1,0,0.1c0,1.2,0.1,2.2,0.3,3c0.2,0.8,0.4,1.4,0.8,1.8s0.7,0.7,1.2,0.9c0.4,0.2,0.9,0.2,1.5,0.2
		c0.5,0,1-0.1,1.4-0.2c0.4-0.1,0.8-0.3,1.2-0.6s0.7-0.7,0.9-1.1c0.3-0.5,0.5-1,0.7-1.7c0.2,0,0.4,0.1,0.6,0.1
		C140.9,95,141.1,95.1,141.3,95.2z M138.4,91.1c0-0.9-0.1-1.5-0.3-2.1c-0.1-0.5-0.3-0.9-0.6-1.2c-0.2-0.3-0.5-0.5-0.9-0.6
		c-0.3-0.1-0.7-0.2-1.1-0.2c-0.4,0-0.8,0.1-1.2,0.2c-0.4,0.1-0.7,0.3-1,0.6c-0.3,0.3-0.5,0.7-0.7,1.2c-0.2,0.5-0.3,1.2-0.4,2H138.4z
		"/>
	<path d="M151.4,99.3h-7.5v-1.2h2.3V87.5h-2.3v-1.2h5.1v2.4h0.1c0.2-0.4,0.4-0.8,0.7-1.1c0.3-0.3,0.6-0.6,0.9-0.9
		c0.3-0.2,0.7-0.4,1-0.6c0.4-0.1,0.7-0.2,1.1-0.2c0.6,0,1.1,0.2,1.5,0.5c0.4,0.4,0.6,0.9,0.6,1.5c0,0.6-0.2,1-0.5,1.3
		c-0.3,0.3-0.7,0.5-1.2,0.5c-0.5,0-0.9-0.1-1.2-0.4c-0.3-0.3-0.4-0.7-0.4-1.1c0-0.2,0-0.5,0.1-0.8c-0.4,0.1-0.8,0.4-1.1,0.7
		s-0.6,0.7-0.9,1.2c-0.3,0.5-0.5,1-0.6,1.6c-0.1,0.6-0.2,1.3-0.2,2.1v5.2h2.5V99.3z"/>
</g>
<path class="st4" d="M46.2,112.7c0,0,4.6,0.5,4.6,15.7c0,15.2-4.6,15.7-4.6,15.7"/>
<path class="st4" d="M28.9,149.8c0,0,4.6,0.6,4.6,19s-4.6,19-4.6,19"/>
<line class="st5" x1="49.2" y1="116.1" x2="156.6" y2="116.1"/>
<line class="st5" x1="49.2" y1="117" x2="157.5" y2="117"/>
<line class="st5" x1="50.2" y1="119.9" x2="158.5" y2="119.9"/>
<line class="st5" x1="50.2" y1="120.8" x2="158.5" y2="120.8"/>
<line class="st5" x1="51.1" y1="121.8" x2="159.4" y2="121.8"/>
<line class="st5" x1="51.1" y1="127.5" x2="160.4" y2="127.5"/>
<line class="st5" x1="51.1" y1="129.4" x2="160.4" y2="129.4"/>
<line class="st5" x1="51.1" y1="134.1" x2="159.4" y2="134.1"/>
<line class="st5" x1="50.2" y1="137.9" x2="158.5" y2="137.9"/>
<line class="st5" x1="49.2" y1="140.7" x2="158.5" y2="140.7"/>
<line class="st5" x1="31.2" y1="152.1" x2="161.3" y2="152.1"/>
<line class="st5" x1="32.1" y1="154" x2="162.3" y2="154"/>
<line class="st5" x1="33.1" y1="156.9" x2="163.2" y2="156.9"/>
<line class="st5" x1="34" y1="161.6" x2="164.2" y2="161.6"/>
<line class="st5" x1="34" y1="167.3" x2="166.1" y2="167.3"/>
<line class="st5" x1="34" y1="164.5" x2="166.1" y2="164.5"/>
<line class="st5" x1="34" y1="166.4" x2="166.1" y2="166.4"/>
<line class="st5" x1="33.1" y1="181.6" x2="163.2" y2="181.6"/>
<line class="st5" x1="32.1" y1="184.4" x2="162.3" y2="184.4"/>
<line class="st5" x1="34" y1="174.9" x2="164.2" y2="174.9"/>
<line class="st5" x1="34" y1="171.1" x2="164.2" y2="171.1"/>
</svg>
